<svg width="310" height="100" viewBox="0 0 310 100" fill="none" xmlns="http://www.w3.org/2000/svg">
<g filter="url(#filter0_d_2_28)">
<circle cx="260" cy="40" r="25" fill="white"/>
</g>
<path d="M264 36C265.591 36 267.117 36.6321 268.243 37.7574C269.368 38.8826 270 40.4087 270 42V49H266V42C266 41.4696 265.789 40.9609 265.414 40.5858C265.039 40.2107 264.53 40 264 40C263.47 40 262.961 40.2107 262.586 40.5858C262.211 40.9609 262 41.4696 262 42V49H258V42C258 40.4087 258.632 38.8826 259.757 37.7574C260.883 36.6321 262.409 36 264 36V36Z" stroke="#757683" stroke-width="1.5" stroke-linecap="round" stroke-linejoin="round"/>
<path d="M254 37H250V49H254V37Z" stroke="#757683" stroke-width="1.5" stroke-linecap="round" stroke-linejoin="round"/>
<path d="M252 34C253.105 34 254 33.1046 254 32C254 30.8954 253.105 30 252 30C250.895 30 250 30.8954 250 32C250 33.1046 250.895 34 252 34Z" stroke="#757683" stroke-width="1.5" stroke-linecap="round" stroke-linejoin="round"/>
<g filter="url(#filter1_d_2_28)">
<circle cx="190" cy="40" r="25" fill="white"/>
</g>
<path d="M190 50C195.523 50 200 45.5228 200 40C200 34.4772 195.523 30 190 30C184.477 30 180 34.4772 180 40C180 45.5228 184.477 50 190 50Z" stroke="#FF694B" stroke-width="1.5" stroke-linecap="round" stroke-linejoin="round"/>
<path d="M186.56 30.75C190.93 36.78 192.58 40.17 194.59 48.47M197.13 33.09C193.41 37.44 188.19 38.75 180.25 38.94M199.75 40.84C196.25 39.91 193.12 40.02 190.81 40.84C188.23 41.76 185.8 43.7 183.37 47.16" stroke="#FF694B" stroke-width="1.5" stroke-linecap="round" stroke-linejoin="round"/>
<g filter="url(#filter2_d_2_28)">
<circle cx="120" cy="40" r="25" fill="white"/>
</g>
<path d="M131 31.0101C130.042 31.6855 128.982 32.2022 127.86 32.5401C127.258 31.8476 126.457 31.3567 125.567 31.134C124.677 30.9112 123.739 30.9673 122.882 31.2945C122.025 31.6218 121.288 32.2045 120.773 32.9638C120.258 33.7231 119.988 34.6224 120 35.5401V36.5401C118.243 36.5856 116.501 36.1959 114.931 35.4055C113.361 34.6151 112.01 33.4487 111 32.0101C111 32.0101 107 41.0101 116 45.0101C113.941 46.408 111.487 47.109 109 47.0101C118 52.0101 129 47.0101 129 35.5101C128.999 35.2315 128.972 34.9537 128.92 34.6801C129.941 33.6735 130.661 32.4028 131 31.0101V31.0101Z" stroke="#757683" stroke-width="1.5" stroke-linecap="round" stroke-linejoin="round"/>
<g filter="url(#filter3_d_2_28)">
<circle cx="50" cy="40" r="25" fill="white"/>
</g>
<path d="M56 30H53C51.6739 30 50.4021 30.5268 49.4645 31.4645C48.5268 32.4021 48 33.6739 48 35V38H45V42H48V50H52V42H55L56 38H52V35C52 34.7348 52.1054 34.4804 52.2929 34.2929C52.4804 34.1054 52.7348 34 53 34H56V30Z" stroke="#757683" stroke-width="1.5" stroke-linecap="round" stroke-linejoin="round"/>
<defs>
<filter id="filter0_d_2_28" x="210" y="0" width="100" height="100" filterUnits="userSpaceOnUse" color-interpolation-filters="sRGB">
<feFlood flood-opacity="0" result="BackgroundImageFix"/>
<feColorMatrix in="SourceAlpha" type="matrix" values="0 0 0 0 0 0 0 0 0 0 0 0 0 0 0 0 0 0 127 0" result="hardAlpha"/>
<feOffset dy="10"/>
<feGaussianBlur stdDeviation="12.5"/>
<feComposite in2="hardAlpha" operator="out"/>
<feColorMatrix type="matrix" values="0 0 0 0 0.825 0 0 0 0 0.825 0 0 0 0 0.825 0 0 0 0.25 0"/>
<feBlend mode="normal" in2="BackgroundImageFix" result="effect1_dropShadow_2_28"/>
<feBlend mode="normal" in="SourceGraphic" in2="effect1_dropShadow_2_28" result="shape"/>
</filter>
<filter id="filter1_d_2_28" x="140" y="0" width="100" height="100" filterUnits="userSpaceOnUse" color-interpolation-filters="sRGB">
<feFlood flood-opacity="0" result="BackgroundImageFix"/>
<feColorMatrix in="SourceAlpha" type="matrix" values="0 0 0 0 0 0 0 0 0 0 0 0 0 0 0 0 0 0 127 0" result="hardAlpha"/>
<feOffset dy="10"/>
<feGaussianBlur stdDeviation="12.5"/>
<feComposite in2="hardAlpha" operator="out"/>
<feColorMatrix type="matrix" values="0 0 0 0 0.825 0 0 0 0 0.825 0 0 0 0 0.825 0 0 0 0.25 0"/>
<feBlend mode="normal" in2="BackgroundImageFix" result="effect1_dropShadow_2_28"/>
<feBlend mode="normal" in="SourceGraphic" in2="effect1_dropShadow_2_28" result="shape"/>
</filter>
<filter id="filter2_d_2_28" x="70" y="0" width="100" height="100" filterUnits="userSpaceOnUse" color-interpolation-filters="sRGB">
<feFlood flood-opacity="0" result="BackgroundImageFix"/>
<feColorMatrix in="SourceAlpha" type="matrix" values="0 0 0 0 0 0 0 0 0 0 0 0 0 0 0 0 0 0 127 0" result="hardAlpha"/>
<feOffset dy="10"/>
<feGaussianBlur stdDeviation="12.5"/>
<feComposite in2="hardAlpha" operator="out"/>
<feColorMatrix type="matrix" values="0 0 0 0 0.825 0 0 0 0 0.825 0 0 0 0 0.825 0 0 0 0.25 0"/>
<feBlend mode="normal" in2="BackgroundImageFix" result="effect1_dropShadow_2_28"/>
<feBlend mode="normal" in="SourceGraphic" in2="effect1_dropShadow_2_28" result="shape"/>
</filter>
<filter id="filter3_d_2_28" x="0" y="0" width="100" height="100" filterUnits="userSpaceOnUse" color-interpolation-filters="sRGB">
<feFlood flood-opacity="0" result="BackgroundImageFix"/>
<feColorMatrix in="SourceAlpha" type="matrix" values="0 0 0 0 0 0 0 0 0 0 0 0 0 0 0 0 0 0 127 0" result="hardAlpha"/>
<feOffset dy="10"/>
<feGaussianBlur stdDeviation="12.5"/>
<feComposite in2="hardAlpha" operator="out"/>
<feColorMatrix type="matrix" values="0 0 0 0 0.825 0 0 0 0 0.825 0 0 0 0 0.825 0 0 0 0.25 0"/>
<feBlend mode="normal" in2="BackgroundImageFix" result="effect1_dropShadow_2_28"/>
<feBlend mode="normal" in="SourceGraphic" in2="effect1_dropShadow_2_28" result="shape"/>
</filter>
</defs>
</svg>
